<svg id="ae9ac8f6-d5dc-4651-82f3-f6b5847fc44b" data-name="Layer 1" xmlns="http://www.w3.org/2000/svg" xmlns:xlink="http://www.w3.org/1999/xlink" viewBox="0 0 886.5 368.6"><defs><style>.b4e5cd27-01bf-45f8-9e46-fd7c50526ede{fill:none;}.a9af0125-fd8c-4930-84e3-d00cdee2f347{clip-path:url(#b7020f01-9576-42ea-ab38-9d31017e76c3);}.ffd55bd7-9525-4960-87f6-99f8002ae35a{fill:#f4a733;}.bfc47e55-6fa4-43cc-bfda-0c665a8eb376{fill:#f5a11c;}.ebe0c31a-a19c-4c07-a952-4e8092fe2a7f{fill:#db5f33;}</style><clipPath id="b7020f01-9576-42ea-ab38-9d31017e76c3"><rect class="b4e5cd27-01bf-45f8-9e46-fd7c50526ede" x="-91.9" y="-308.8" width="1080" height="1080"/></clipPath></defs><title>vivelanco-logo</title><g class="a9af0125-fd8c-4930-84e3-d00cdee2f347"><path class="ffd55bd7-9525-4960-87f6-99f8002ae35a" d="M144.4,93.7c5.1-.5,9.6,0,14,.3s8.4,1.5,12.5,2.7c6.4,1.9,12.7,4.2,19.2,5.9a5.1,5.1,0,0,1,1.7.7c7.4,4.7,15.4,8.5,22.1,14.4,4,3.7,8.4,7,11.8,11.4s6.3,7.4,8.9,11.5a49,49,0,0,1,5.2,10.2,54.1,54.1,0,0,0,3.4,7.8c2.3,4.6,3.3,9.6,4.2,14.5a24.4,24.4,0,0,0,.6,2.6,70.4,70.4,0,0,1,2.4,23.7,7.4,7.4,0,0,0,.3,2.6,11.7,11.7,0,0,1-1.1,7.6,16.3,16.3,0,0,0-1.3,4.8,51.4,51.4,0,0,1-2.1,8.6,91.8,91.8,0,0,1-2.8,8.9c-1.3,3.7-2.7,7.3-5.3,10.3-1.1,1.2-1.4,2.8-2.1,4.2a75.9,75.9,0,0,1-6.2,9.7,14,14,0,0,0-1.5,2.4c-1.2,2.6-3.4,4.5-5.2,6.8s-5.8,5.5-8.4,8.5a43.7,43.7,0,0,1-6.9,6c-1.5,1.2-3.4,1.5-5,2.7s-2.8,1.7-4.2,2.7a51.3,51.3,0,0,1-19.1,9.2c-5.1,1.3-10.2,3.1-15.5,3.3-1.2,0-2.3-.2-3.4-.1a86.7,86.7,0,0,1-16.9,1,11.3,11.3,0,0,1-4.1-.6,7.4,7.4,0,0,0-3.9-.3c-4.9.2-9.6-1.1-14.4-2.3s-8.7-2.1-12.8-4.1-7.8-3.7-11.2-6.5a36.6,36.6,0,0,0-7.4-4.3,27.7,27.7,0,0,1-6.4-5c-2-1.9-3.8-3.9-5.9-5.8a44.9,44.9,0,0,1-8.4-9.6c-2.5-4-5.4-7.7-7.7-11.8a19.6,19.6,0,0,1-1.3-2.5c-1.7-3.8-4.4-7-6-10.9s-2.1-6-3-9.1l-2.1-7c0-.1,0-.2-.1-.2-.6-4.6-2.3-8.9-3.3-13.4a4.2,4.2,0,0,1-.1-1.6c.8-4.4,0-8.8.5-13.2a90.5,90.5,0,0,1,1.2-9.1c1.1-5.9,2.6-11.7,3.9-17.5a33.2,33.2,0,0,1,2.7-6.8c1.8-3.7,3-7.6,4.9-11.2A66.8,66.8,0,0,1,66.9,134c2.5-2.8,4.7-6,7.3-8.8s3.5-2.9,5.1-4.5a71.7,71.7,0,0,1,9.1-7.4c3.4-2.5,7.2-4.3,10.7-6.6.9-.6,1.9-1.1,2.8-1.8a20.1,20.1,0,0,1,6.9-3c5.4-1.6,10.7-3.4,16-4.9s13.3-3.8,19.6-3.3m4.2,200.1c5.2.8,10.5-.6,16-.5a1.7,1.7,0,0,0,1-.1c4-.9,8.2-1.3,12.3-2.3a60.4,60.4,0,0,0,16.4-7.3c3.8-2.3,7.3-5.1,11.4-7a13.1,13.1,0,0,0,2.8-2c3.4-3,6.3-6.5,9.8-9.4a18.7,18.7,0,0,0,3.2-3.1c3.8-4.9,7.1-10.3,10.8-15.3a1.4,1.4,0,0,0,.4-1.2c-.7-2.3.8-3.8,1.9-5.4a34.3,34.3,0,0,0,4.9-9.5c.9-2.9,1.9-5.9,2.8-8.9s1.4-6.5,2.5-9.5c2-5.6,2-11.1,1.8-16.7,0-3.2-.6-6.3-.6-9.4a20.4,20.4,0,0,0-.3-3.4c-1.1-5.2-2.5-10.3-3.4-15.5a16.7,16.7,0,0,0-1.9-5.7,78.5,78.5,0,0,1-4-8.8,53,53,0,0,0-7.5-13.6,108.5,108.5,0,0,0-9.8-11.7c-3.3-3.2-6.6-6.3-10.1-9.2-5.3-4.3-11.4-7.6-17-11.6a9.3,9.3,0,0,0-3.5-1.6c-4.1-1.1-8.2-2.3-12.3-3.7a79.5,79.5,0,0,0-17.4-3.8c-6-.6-11.8-1-17.7-.1-3.8.5-7.7.4-11.4,1.5s-5.5,1-8.1,1.9-7.3,2.3-11,3.4a23.5,23.5,0,0,0-7.8,3.4,48.9,48.9,0,0,1-6.4,4.5C88,117,81.1,123.6,74.6,130.7c-2.1,2.2-3.8,4.8-5.7,7.1a61.1,61.1,0,0,0-7.3,11.6c-1.7,3.3-2.7,6.8-4.4,10a27.9,27.9,0,0,0-3.6,11.1,29.4,29.4,0,0,1-1.2,5.9,41.8,41.8,0,0,0-2,11,19.3,19.3,0,0,1-.1,3.4c-.9,4.1-.4,8.3-.5,12.5s2.2,9,3,13.7,2.5,7.6,3.6,11.4a39.5,39.5,0,0,0,6,12.6c.9,1.2,2.2,2.6,1.4,4.5s.4,1.1.7,1.6c1.9,3.3,4.6,6.1,6.5,9.4a35.2,35.2,0,0,0,7.1,8.7,69.9,69.9,0,0,1,6.3,5.9c1.8,1.9,3.6,4.2,6.1,5.2s5,3.1,7.6,4.4a6.9,6.9,0,0,1,2,1.3c2.2,2.5,5.4,3.4,8.2,4.9,7.3,4,15.4,5.6,23.6,6.3,5.4.5,10.9,1.3,16.7.6"/><path class="ffd55bd7-9525-4960-87f6-99f8002ae35a" d="M85.4,100.2c0,.5-.5,1-1.2,1.2s-1.2-.1-1.5-.7-2.2-3.9-3.3-5.9c-3.2-5.8-6.3-11.7-9.3-17.6a46.2,46.2,0,0,0-3.5-5.5L65,69.3a1,1,0,0,1,.3-1,1,1,0,0,1,.9-.2A8.2,8.2,0,0,1,68.4,70c1.5,2.3,3.2,4.5,4.5,7,2.5,4.6,5.1,9.2,7.5,13.8,1.2,2.4,2.8,4.6,4.1,7a5.2,5.2,0,0,1,.9,2.4"/><path class="ffd55bd7-9525-4960-87f6-99f8002ae35a" d="M278.2,273.3a9.4,9.4,0,0,1-2.8-1.2c-5.2-2.5-9.8-6.2-14.6-9.5-2.5-1.7-4.6-3.8-7.4-5.1s-3.2-2.5-4.9-3.5a1.6,1.6,0,0,1-.6-2.3c.7-1,1.6-.8,2.5-.1,6.8,5,13.9,9.7,20.7,15a31.8,31.8,0,0,0,6.6,4.1l1.4.7c.5.4,1,.9.6,1.6s-.9.4-1.5.3"/><path class="ffd55bd7-9525-4960-87f6-99f8002ae35a" d="M194.2,54.8a43.5,43.5,0,0,1-2.7,7.9c-2.1,4.5-4.4,8.9-6.5,13.3l-4.8,10.1a1.9,1.9,0,0,1-.5.9c-.5.7-1.2,1.1-2,.6s-1-1.2-.6-2.2c1.4-2.6,2.6-5.2,3.9-7.7L190.3,59a23.2,23.2,0,0,0,1.3-3.7,6.1,6.1,0,0,1,.5-1.2c.2-.8.6-1.4,1.5-1.1s.7.9.6,1.8"/><path class="ffd55bd7-9525-4960-87f6-99f8002ae35a" d="M76.1,280.4a3,3,0,0,1-1.2,1.5c-2.3,1.7-4.5,3.4-6.6,5.2-4.7,3.7-9.6,7.2-14.4,10.8a23.8,23.8,0,0,0-4.4,4,17.1,17.1,0,0,1-2,1.8,1,1,0,0,1-1.4-.2c-.3-.4-.1-.8.1-1.2a11.8,11.8,0,0,1,1.7-2.2c4.3-4.5,9.3-8.2,14.2-11.9s6.6-5.3,9.9-8a5.9,5.9,0,0,1,2-1.2,1.6,1.6,0,0,1,2.1,1.4"/><path class="ffd55bd7-9525-4960-87f6-99f8002ae35a" d="M113.4,85.9a1.7,1.7,0,0,1-1.3,1.9c-.9.3-1.5-.4-1.8-1.1a6.1,6.1,0,0,1-.3-1.3c-.2-3.6-1.4-7.1-1.4-10.8,0-2.1-1.1-4.2-1.6-6.4s-1-7.2-2.1-10.7a4.1,4.1,0,0,1,0-1.1c.1-.7-.1-1.8.9-1.9s.9,1.1,1.1,1.8c1.5,5.9,3.1,11.7,4.5,17.7.8,4,1.1,8.1,2,11.9"/><path class="ffd55bd7-9525-4960-87f6-99f8002ae35a" d="M264.1,214.2l6.3,1,18.3,3.3a18.3,18.3,0,0,1,2.5.6c.6.2,1,.6.8,1.2a1,1,0,0,1-1.2.8,50.9,50.9,0,0,1-5.5-.4l-20.9-3.3-1.8-.3c-.9-.2-1.4-.7-1.3-1.6s.7-1.3,1.6-1.3h1.2"/><path class="ffd55bd7-9525-4960-87f6-99f8002ae35a" d="M56.9,127.2a1.2,1.2,0,0,1-1.7,1.3,9.1,9.1,0,0,1-2.6-1.3c-5.9-4.4-12.1-8.5-17.9-13.2-.8-.7-1.9-1.1-2.7-1.9s-1.3-1.2-.6-2,1.2-.1,1.8.2c3.2,1.4,5.8,3.7,8.7,5.7l13.4,9.2c.7.5,1.6.8,1.6,2"/><path class="ffd55bd7-9525-4960-87f6-99f8002ae35a" d="M107.3,304.1a6.1,6.1,0,0,1-.7,2.4l-7.8,15.3c-1.1,2.2-2.1,4.4-3.2,6.5s-1,2.8-2.4,2.3-.3-2.2.1-3.2c2.3-5.6,5.1-11,7.7-16.5l2.7-5.7,1-1.8a1.3,1.3,0,0,1,1.7-.8,1.2,1.2,0,0,1,.9,1.5"/><path class="ffd55bd7-9525-4960-87f6-99f8002ae35a" d="M234.6,317.1c-2.8-4.9-5.7-9.6-8.1-14.4-1.7-3.3-3.9-6.2-5.4-9.5l-.7-1.2a1.5,1.5,0,0,1,.9-1.9,1.2,1.2,0,0,1,1.9.6c2.1,3.9,4.3,7.8,6.3,11.7.8,1.8,1.8,3.4,2.7,5.1a38.7,38.7,0,0,1,3.5,6.7c.7,1.5.7,1.5-1.1,2.9"/><path class="ffd55bd7-9525-4960-87f6-99f8002ae35a" d="M19.4,249.7c-1.1.1-1.5,0-2-.4s-.5-1.6.4-1.7c4.2-.7,8.1-2.3,12.2-2.9a97,97,0,0,0,10.7-2.3c1.2-.4,2.5-.6,3.8-.9a1.8,1.8,0,0,1,2.2,1.3c.2,1.3-.7,1.5-1.8,1.8-6.9,1.7-14,2.6-20.9,4.3-1.7.4-3.4.6-4.6.8"/><path class="ffd55bd7-9525-4960-87f6-99f8002ae35a" d="M141.2,56.1c-.7,5.6.3,11.3-.2,16.9a25.6,25.6,0,0,0,.3,3.9,5.7,5.7,0,0,1-.3,2.6,1.3,1.3,0,0,1-1.2.9,1.4,1.4,0,0,1-1.4-.9,14.5,14.5,0,0,1-.4-2.9c.4-5.7.1-11.5.3-17.2.1-2.3.1-4.5.1-6.8a4.1,4.1,0,0,1,0-1.1c.1-.9-.1-2.2,1.2-2.2s1.1,1.2,1.2,2.1.2,3.1.4,4.7"/><path class="ffd55bd7-9525-4960-87f6-99f8002ae35a" d="M221.4,108.5a1.8,1.8,0,0,1-1.6-1,1.4,1.4,0,0,1,.5-1.8c2-1.2,3.5-2.9,5.3-4.2,5-3.5,9.8-7.4,14.6-11.1l1.8-1.1a1.4,1.4,0,0,1,1.9.3c.3.3.5.7.1,1.1l-1.4,1.2c-4.8,3.3-8.8,7.6-13.8,10.7-2.2,1.3-3.8,3.5-5.9,5-.5.4-.9.9-1.5.9"/><path class="ffd55bd7-9525-4960-87f6-99f8002ae35a" d="M285.2,181.2a12,12,0,0,1-5.7,1.2c-6.7.3-13.3,1.6-20,.8-1-.1-1.9.5-2.9.2a1.7,1.7,0,0,1-1.4-1.3c-.1-.7.6-1,1.2-1.2a1.8,1.8,0,0,1,1.2-.3c2.7,0,5.4-.8,8.1-.3a11.3,11.3,0,0,0,2.6,0,84.4,84.4,0,0,1,13.3-.2,7.2,7.2,0,0,1,3.6,1.1"/><path class="ffd55bd7-9525-4960-87f6-99f8002ae35a" d="M138.5,342.7a3.2,3.2,0,0,1-.6-2.7c.8-7.5.8-15.1,2.4-22.5a14.9,14.9,0,0,0,.2-2.1c.2-1,.4-2.4,1.6-2.4s1.3,1.4,1.3,2.5a25.6,25.6,0,0,1-.6,6.2c-1,4.7-1.1,9.5-2,14.2-.5,2.3-.7,4.7-2.3,6.8"/><path class="ffd55bd7-9525-4960-87f6-99f8002ae35a" d="M20.3,148.3a5.2,5.2,0,0,1,3.1.5c7,2.8,14.1,5.1,20.7,8.8.8.5,1.7.7,2.6,1.2a1.4,1.4,0,0,1,.9,1.7c-.2.7-1.2.7-1.8.7a8.1,8.1,0,0,1-2.2-.7l-9.5-4.4c-3.9-1.6-7.6-3.5-11.3-5.4a7.2,7.2,0,0,1-2.5-2.4"/><path class="ffd55bd7-9525-4960-87f6-99f8002ae35a" d="M16.6,196.5l9.6,1a86.9,86.9,0,0,0,10.2.3,16.4,16.4,0,0,1,2.3.2,1.4,1.4,0,0,1,1.4,1.6c-.1,1.1-.8,1.2-1.7,1.2H34.3a112.4,112.4,0,0,1-13-1.5c-1.7-.3-3.6-.5-4.7-2.7"/><path class="ffd55bd7-9525-4960-87f6-99f8002ae35a" d="M185.8,331.6c-.6-.3-.5-.9-.6-1.4-1.1-6.1-2-12.2-4.3-18a5.7,5.7,0,0,1-.3-1.8c0-.8.3-1.6,1.3-1.7s1.2.5,1.4,1.2.9,3.2,1.4,4.8c1.1,4.1,1.6,8.3,2.3,12.5.2,1.5.5,3.3-1.2,4.4"/><path class="ffd55bd7-9525-4960-87f6-99f8002ae35a" d="M266.7,136c-.5.9-1.4.9-2.1,1.1-3.3,1-6.3,2.5-9.5,3.5s-4.3,2.1-6.3,3.1a6.8,6.8,0,0,1-2.7,1,1.6,1.6,0,0,1-1.5-.9c-.3-.8.2-1.2.7-1.5a4.5,4.5,0,0,1,1.2-.6,117.9,117.9,0,0,1,15.3-5.9c1.6-.5,3.3-1,4.9.2"/><path class="ffd55bd7-9525-4960-87f6-99f8002ae35a" d="M162.9,324.2a11.2,11.2,0,0,1-.6,4.8c-.2.5-.5,1.1-1.1.8s-.6-.6-.6-1.1c.7-4-.3-7.9-1.1-11.8,0-.4-.1-.7-.1-1a1.2,1.2,0,0,1,.8-1.3,1.3,1.3,0,0,1,1.2.5,3.7,3.7,0,0,1,1,2.3c.2,2.3.3,4.5.5,6.8"/><path class="ffd55bd7-9525-4960-87f6-99f8002ae35a" d="M37.9,178.6c-3.4-1-7.3-1.1-10.8-3l-.6-.4c-.4-.3-.7-.7-.5-1.1s.9-.5,1.3-.3a30.2,30.2,0,0,0,7.9,1.8,22,22,0,0,1,3.6.4c.8.1,2.1.1,1.9,1.3s-1.2,1.1-2,1.3h-.8"/><path class="ffd55bd7-9525-4960-87f6-99f8002ae35a" d="M58.9,103.5a2.7,2.7,0,0,1,1.6.8,44.5,44.5,0,0,1,5.6,5.9c.5.6,1,1.4.3,2a1.6,1.6,0,0,1-2.3-.1,40.1,40.1,0,0,1-6.2-6.8,1.1,1.1,0,0,1,1-1.8"/><path class="ffd55bd7-9525-4960-87f6-99f8002ae35a" d="M268.9,160.6a1.4,1.4,0,0,1-1.1.8c-3.8,0-7.3,1.5-10.8,2.7l-1.2.5c-.7.2-1.5.3-1.8-.6s.3-1.3.9-1.7l.7-.3c3.5-1.1,7.1-2.3,10.8-2.4a2.9,2.9,0,0,1,2.5,1"/><path class="ffd55bd7-9525-4960-87f6-99f8002ae35a" d="M207.3,300a3,3,0,0,1,1.9,1.2c1.6,2.7,2.2,5.8,3,8.8a1,1,0,0,1-.6,1.1,1.3,1.3,0,0,1-1.4-.4,9.4,9.4,0,0,1-1.5-3,24.2,24.2,0,0,0-2.3-5.2,1.6,1.6,0,0,1,0-2,.9.9,0,0,1,.9-.5"/><path class="ffd55bd7-9525-4960-87f6-99f8002ae35a" d="M83.1,305.4a1.1,1.1,0,0,1-.9-.8,1.7,1.7,0,0,1,.3-1.7c1.6-2.1,2.8-4.5,4.7-6.3.3-.3.5-.7.9-.9s1.7-.1,1.8,1a2.2,2.2,0,0,1-.5,1.7,72.6,72.6,0,0,1-5,6.3,1.9,1.9,0,0,1-1.3.7"/><path class="ffd55bd7-9525-4960-87f6-99f8002ae35a" d="M161.3,69.8a63.3,63.3,0,0,1-1.5,7.8c-.2.8-.7,1.6-1.4,1.6a1.6,1.6,0,0,1-1.4-1.9,45.8,45.8,0,0,1,2-8.9,1.1,1.1,0,0,1,1.2-.8,1.2,1.2,0,0,1,1,1,5.7,5.7,0,0,1,.1,1.2"/><path class="ffd55bd7-9525-4960-87f6-99f8002ae35a" d="M270.6,237.5a1.3,1.3,0,0,1-1.7,1,44.5,44.5,0,0,1-8.6-3.2c-.5-.2-1.1-.7-.9-1.4s.9-.9,1.7-.9h.7a48.5,48.5,0,0,1,8.2,3.3,1.3,1.3,0,0,1,.6,1.2"/><path class="ffd55bd7-9525-4960-87f6-99f8002ae35a" d="M33.1,228.3H31c-.8.1-1.4-.1-1.6-.8s.4-1.2,1.1-1.5l1.8-.4a37.9,37.9,0,0,0,6.7-.6,2.9,2.9,0,0,1,1.3.1c1.1.4,1.2,1.1.5,1.9a3,3,0,0,1-2.3,1.1c-1.8,0-3.6.5-5.4.1"/><path class="ffd55bd7-9525-4960-87f6-99f8002ae35a" d="M102,89.1c.1,1.2-.3,1.7-1.1,1.9s-1.1-.4-1.3-.9a7.3,7.3,0,0,1-1.1-2.9c-.1-2.2.1-4.4-.6-6.5-.1-.5-.1-1.1.5-1.3s1,.2,1.4.5a3.7,3.7,0,0,1,.7,1.4c.9,2.6.5,5.5,1.5,7.8"/><path class="ffd55bd7-9525-4960-87f6-99f8002ae35a" d="M242.3,114.7a1.8,1.8,0,0,1-.9,1.3l-7.4,4.8a1.5,1.5,0,0,1-1.7-.2c-.6-.5-.3-1.1-.1-1.7a3.4,3.4,0,0,1,2-1.9c2.1-1.2,4.3-2.3,6.5-3.3a1,1,0,0,1,1.6,1"/><path class="ffd55bd7-9525-4960-87f6-99f8002ae35a" d="M238.4,267.8a7.6,7.6,0,0,1,2.7,2.1,13.2,13.2,0,0,1,1.2,2A16.2,16.2,0,0,0,245,276a.8.8,0,0,1,.2,1.2.9.9,0,0,1-1.2.3,4.2,4.2,0,0,1-1.3-.7,10,10,0,0,1-1.4-1.5,26.1,26.1,0,0,0-3.6-5.1,1.3,1.3,0,0,1,.7-2.4"/><path class="ffd55bd7-9525-4960-87f6-99f8002ae35a" d="M63.1,265.4a2.3,2.3,0,0,1-.7,1,8.3,8.3,0,0,1-3.6,1.6,22.5,22.5,0,0,0-5.5,1.5,1,1,0,0,1-1.4-.2c-.3-.5,0-.9.3-1.4a5.1,5.1,0,0,1,2.4-1.5c2.1-.8,4.3-1.2,6.4-2.2a1.4,1.4,0,0,1,2.1,1.2"/><path class="ffd55bd7-9525-4960-87f6-99f8002ae35a" d="M196.8,95.6a1.4,1.4,0,0,1-1.4-1.8,7.6,7.6,0,0,1,2.3-3.1c1.5-1.2,3.3-2.2,4.4-4s.8-.8,1.4-.4.4.8.4,1.4a4.4,4.4,0,0,1-1.4,2.2c-1.6,1.8-3.8,3.1-5.1,5.2-.1.3-.5.4-.6.5"/><path class="ffd55bd7-9525-4960-87f6-99f8002ae35a" d="M50.6,139.4c0,.7-.5,1-1.2,1A1.8,1.8,0,0,1,48,140l-4.1-2.7a1.8,1.8,0,0,1-.9-2c.4-.9,1.3-.2,1.8,0s3.3,1.6,4.9,2.4a1.6,1.6,0,0,1,.9,1.7"/><path class="ffd55bd7-9525-4960-87f6-99f8002ae35a" d="M119,324.3c-.5-2.4.4-4.9,1-7.3a1.3,1.3,0,0,1,1.4-1c.7,0,1.1.5,1,1-.3,2.6-.5,5.3-2.5,7.4-.1.2-.4.3-.9-.1"/><path class="ffd55bd7-9525-4960-87f6-99f8002ae35a" d="M124.9,70.5a1.2,1.2,0,0,1,1,1.1,49.9,49.9,0,0,0,.7,5.4c.2.7-.3,1.1-1,1.3a1.4,1.4,0,0,1-1.7-.9,11.6,11.6,0,0,1,.2-6.4c.1-.4.4-.5.8-.5"/><path class="ffd55bd7-9525-4960-87f6-99f8002ae35a" d="M266.7,203.5H263a1.3,1.3,0,0,1-1.3-1.4c0-.8.7-1.1,1.4-1.2a25.7,25.7,0,0,1,6.2.8c.5.1,1.2.6,1,1.3s-.9.5-1.3.6-1.9-.2-2.3-.1"/><path class="ffd55bd7-9525-4960-87f6-99f8002ae35a" d="M148.6,293.8c-5.8.7-11.3-.1-16.7-.6-8.2-.7-16.3-2.3-23.6-6.3-2.8-1.5-6-2.4-8.2-4.9a6.9,6.9,0,0,0-2-1.3c-2.6-1.3-4.8-3.2-7.6-4.4s-4.3-3.3-6.1-5.2a69.9,69.9,0,0,0-6.3-5.9,35.2,35.2,0,0,1-7.1-8.7c-1.9-3.3-4.6-6.1-6.5-9.4-.3-.5-.9-1-.7-1.6s-.5-3.3-1.4-4.5a39.5,39.5,0,0,1-6-12.6c-1.1-3.8-2.9-7.5-3.6-11.4s-3.1-9-3-13.7-.4-8.4.5-12.5a19.3,19.3,0,0,0,.1-3.4,41.8,41.8,0,0,1,2-11,29.4,29.4,0,0,0,1.2-5.9,27.9,27.9,0,0,1,3.6-11.1c1.7-3.2,2.7-6.7,4.4-10a61.1,61.1,0,0,1,7.3-11.6c1.9-2.3,3.6-4.9,5.7-7.1,6.5-7.1,13.4-13.7,21.8-18.5a48.9,48.9,0,0,0,6.4-4.5,23.5,23.5,0,0,1,7.8-3.4c3.7-1.1,7.4-2.1,11-3.4s5.4-1.1,8.1-1.9,7.6-1,11.4-1.5c5.9-.9,11.7-.5,17.7.1a79.5,79.5,0,0,1,17.4,3.8c4.1,1.4,8.2,2.6,12.3,3.7a9.3,9.3,0,0,1,3.5,1.6c5.6,4,11.7,7.3,17,11.6,3.5,2.9,6.8,6,10.1,9.2a108.5,108.5,0,0,1,9.8,11.7,53,53,0,0,1,7.5,13.6,78.5,78.5,0,0,0,4,8.8,16.7,16.7,0,0,1,1.9,5.7c.9,5.2,2.3,10.3,3.4,15.5a20.4,20.4,0,0,1,.3,3.4c0,3.1.6,6.2.6,9.4.2,5.6.2,11.1-1.8,16.7-1.1,3-1.5,6.3-2.5,9.5s-1.9,6-2.8,8.9a34.3,34.3,0,0,1-4.9,9.5c-1.1,1.6-2.6,3.1-1.9,5.4a1.4,1.4,0,0,1-.4,1.2c-3.7,5-7,10.4-10.8,15.3a18.7,18.7,0,0,1-3.2,3.1c-3.5,2.9-6.4,6.4-9.8,9.4a13.1,13.1,0,0,1-2.8,2c-4.1,1.9-7.6,4.7-11.4,7a60.4,60.4,0,0,1-16.4,7.3c-4.1,1-8.3,1.4-12.3,2.3a1.7,1.7,0,0,1-1,.1c-5.5-.1-10.8,1.3-16,.5"/><path class="bfc47e55-6fa4-43cc-bfda-0c665a8eb376" d="M339.9,27.2c6.1-.1,10.9.6,14.4,2a18.3,18.3,0,0,1,7.8,5.6,14.7,14.7,0,0,1,3.2,7.1,43.6,43.6,0,0,1,.6,6.7,96.5,96.5,0,0,1-2.8,17.6c-1.6,6.5-3.7,13.3-6.1,20.4s-5.2,14.4-8.3,21.8-6.2,14.5-9.4,21.4q-11.2,24.3-25.3,50c2.2-1.3,5.1-4.2,8.5-8.5s7.3-9.6,11.7-15.9,9.2-13.3,14.5-21.1,10.9-15.9,16.8-24.2S377.8,93.4,384.3,85s13.2-16.3,20.2-23.7a237.3,237.3,0,0,1,21.2-20.4,117,117,0,0,1,21.7-14.7,65.3,65.3,0,0,1,21.8-7,41.8,41.8,0,0,1,21.4,3,49.2,49.2,0,0,0-23.7,2.3,89.1,89.1,0,0,0-22.7,12.4,163,163,0,0,0-21.6,19.8c-7,7.7-13.8,16-20.5,24.8s-13.1,17.8-19.4,27-12.3,18.2-18.2,26.7-11.5,16.5-16.9,23.9A153.5,153.5,0,0,1,332,177.4c-5,4.9-9.8,8.3-14.3,10.2a14.3,14.3,0,0,1-12.9-.3q14.6-27.5,26.4-53.2c3.3-7.3,6.7-14.9,9.9-22.7s6.3-15.4,9-22.9,5-14.7,6.8-21.5a101.8,101.8,0,0,0,3.3-18.3,17,17,0,0,0-.9-7.6,12.4,12.4,0,0,0-3.8-5.4,15.5,15.5,0,0,0-6.6-3,26.4,26.4,0,0,0-9-.3,45.4,45.4,0,0,0-9.9,2.8,108.7,108.7,0,0,0-13.5,6.5,131,131,0,0,0-14.9,9.8,102.1,102.1,0,0,0-14.1,13,70.7,70.7,0,0,0-10.8,15.7,47.5,47.5,0,0,0-5.4,18.1,22.4,22.4,0,0,0,0,3.7,11.2,11.2,0,0,0,1.5,4.8,13.9,13.9,0,0,0,4.7,4.2c2.2,1.2,5.3,1.8,9.4,1.8a18.8,18.8,0,0,0,9-2.3,32.8,32.8,0,0,0,7.7-6,51.5,51.5,0,0,0,6.5-8.5,101.5,101.5,0,0,0,5.1-9.8c1.4-3.4,2.7-6.7,3.7-9.9a80.3,80.3,0,0,0,2.3-8.6,32.4,32.4,0,0,0,.7-6.1c0-1.5-.2-2.3-.7-2.4a7.2,7.2,0,0,1,5.5,2.5,11,11,0,0,1,2.5,6,27.3,27.3,0,0,1-.2,8.5,44,44,0,0,1-2.9,9.9,55.8,55.8,0,0,1-5.7,10,51.6,51.6,0,0,1-8.4,9.1,45.8,45.8,0,0,1-11,7,43.5,43.5,0,0,1-13.7,3.9l-3.5.2a23.7,23.7,0,0,1-5.1-.4,33.1,33.1,0,0,1-5.8-1.5,18.5,18.5,0,0,1-5.6-3.2,16.3,16.3,0,0,1-4.2-5.4,20.8,20.8,0,0,1-2.1-8.4c-.2-3.4.6-7.5,2.5-12.2a72.2,72.2,0,0,1,7.9-14.9A121.7,121.7,0,0,1,283.9,55a106.7,106.7,0,0,1,16.2-13.7,98.1,98.1,0,0,1,19-9.9,61.7,61.7,0,0,1,20.8-4.2"/><path class="bfc47e55-6fa4-43cc-bfda-0c665a8eb376" d="M397.9,124.7c.9-.2,1.8.3,2.9,1.4a12.7,12.7,0,0,1,3,4.5,22.5,22.5,0,0,1,1.9,6.2,13.6,13.6,0,0,1-.5,6.4,96.7,96.7,0,0,1-5,11.8c-2,4.1-3.9,7.8-5.6,11.1s-3.2,6.1-4.2,8.3-1.2,3.3-.6,3.4a4.8,4.8,0,0,0,3-1.2,32.6,32.6,0,0,0,4.7-3.7l5.5-5.4c1.9-2,3.8-4.1,5.6-6.2s3.4-4.2,4.9-6.2,2.7-3.7,3.6-5.2.8-1.1,1.3-1.2a.9.9,0,0,1,1,.1,1.5,1.5,0,0,1,.6.9,1.5,1.5,0,0,1-.3,1.3,81.6,81.6,0,0,1-7.2,10.2,122.8,122.8,0,0,1-9.5,10.7,67.1,67.1,0,0,1-10.1,8.3c-3.3,2.3-6.2,3.4-8.7,3.4a3.9,3.9,0,0,1-2.6-.9,7.1,7.1,0,0,1-1.5-2.6,10.8,10.8,0,0,1-.4-3.8,20.2,20.2,0,0,1,.8-4.6,32.7,32.7,0,0,1,2.6-6l4.2-8.3c1.6-3,3.2-6.2,4.8-9.5a74.7,74.7,0,0,0,4.2-9.3,45.7,45.7,0,0,0,2.4-8.2,7.9,7.9,0,0,0-.8-5.7M421,99.6a36.2,36.2,0,0,0-2.3,8.3q-.6,3.8.6,5.7c-.8.2-1.7-.2-2.9-1.4a14.6,14.6,0,0,1-2.9-4.4,24.4,24.4,0,0,1-1.9-6.3,13.2,13.2,0,0,1,.5-6.3c.3-.8.5-1.5.8-2.2a18.7,18.7,0,0,0,.7-2.2,44.6,44.6,0,0,0,2.6-8.5,8.8,8.8,0,0,0-.6-6c.8-.2,1.7.3,2.9,1.4a14,14,0,0,1,2.9,4.5,23.6,23.6,0,0,1,1.9,6.2,13.6,13.6,0,0,1-.5,6.4c-.5,1.7-1.2,3.3-1.8,4.8"/><path class="bfc47e55-6fa4-43cc-bfda-0c665a8eb376" d="M466.8,110.2c0-.1.5.2,1.4.9a22.1,22.1,0,0,1,3,2.5,13.5,13.5,0,0,1,2.7,3.2,2.6,2.6,0,0,1,.3,2.9c-.4.8-1.1,2.2-2.2,4.2s-2.6,4.5-4.2,7.4-3.6,6.2-5.7,9.7-4.3,7.1-6.6,10.7a34,34,0,0,0-1,5,18.1,18.1,0,0,0,.1,4.1,5.6,5.6,0,0,0,1.2,2.7,3.7,3.7,0,0,0,2.7,1c1.1,0,2.4-.8,3.9-2.2a44.9,44.9,0,0,0,4.4-5.1c1.4-2,2.7-3.8,3.8-5.6l2.5-3.9a.6.6,0,0,1,.7-.3l.8.4.7,1.1a85.5,85.5,0,0,1-6,9.4l-2.8,3.5a19.9,19.9,0,0,1-2.9,2.9,13.1,13.1,0,0,1-3,2,4.8,4.8,0,0,1-2.8.6,6.7,6.7,0,0,1-5.1-2.6,13.4,13.4,0,0,1-1.7-6.2c-2.2,3.3-4.4,6.4-6.6,9.4s-4.4,5.5-6.5,7.8a47,47,0,0,1-6,5.4,10.3,10.3,0,0,1-5.1,2.3c-.2,0-.3-.1-.3-.2a6,6,0,0,1-2.9-2.2,19.1,19.1,0,0,1-2.6-4.7,23.4,23.4,0,0,1-1.6-5.9,14.4,14.4,0,0,1,.5-5.9c.7-1.9,1.5-4,2.6-6.4s2.2-4.8,3.5-7.3,2.4-5.2,3.5-7.8,2.1-5.1,2.9-7.4a38.6,38.6,0,0,0,1.4-6.3,6.7,6.7,0,0,0-.8-4.4c.8-.2,1.8.3,2.8,1.4a16,16,0,0,1,3,4.5,24.1,24.1,0,0,1,1.9,6.1,13.6,13.6,0,0,1-.5,6.4c-.6,1.8-1.5,3.9-2.6,6.4l-3.5,7.7c-1.3,2.7-2.5,5.5-3.7,8.2a60.9,60.9,0,0,0-2.8,7.7,12.5,12.5,0,0,0-.2,2.1,7.4,7.4,0,0,0,0,2.1,1.8,1.8,0,0,0,.6,1.3c.4.2,1,.1,1.8-.5A21.5,21.5,0,0,0,435,174a67.8,67.8,0,0,0,5.6-6.8l5.8-8.5c1.9-3,3.8-6.1,5.6-9.3s1.8-6.9,3-10.6,2.6-7.3,4.1-10.8,2.8-6.8,4.2-9.9l3.5-7.9"/><path class="bfc47e55-6fa4-43cc-bfda-0c665a8eb376" d="M510,126.1c3.7,0,6.1.9,7.3,2.5s1.6,3.8,1,6.4a30.6,30.6,0,0,1-3.9,9,80.9,80.9,0,0,1-7.5,10.3,42.2,42.2,0,0,1-5.6,5.6,47.6,47.6,0,0,1-5.4,3.7,40,40,0,0,1-4.7,2.3,30.2,30.2,0,0,1-3.9,1.1,21.8,21.8,0,0,0-.4,9c.5,2.4,1.8,3.5,4,3.5a12.4,12.4,0,0,0,6.3-2.1,42,42,0,0,0,6.7-5.2,86.3,86.3,0,0,0,6.5-6.9l5.6-7c1.6-2.2,3-4.1,4-5.7l2-2.7a1.7,1.7,0,0,1,1.1-.6,1.2,1.2,0,0,1,.9.3,2.2,2.2,0,0,1,.5.8,1.7,1.7,0,0,1-.3,1c-.6.7-1.4,1.9-2.6,3.7s-2.7,3.9-4.4,6.2-3.6,4.8-5.8,7.4a65.2,65.2,0,0,1-6.9,7,49.5,49.5,0,0,1-7.8,5.4,18.2,18.2,0,0,1-8.3,2.1,12.4,12.4,0,0,1-6.6-1.5,11.7,11.7,0,0,1-5.5-8.2,13.8,13.8,0,0,1-.3-3.9,47.3,47.3,0,0,1,3.3-15.4,57.7,57.7,0,0,1,7.9-14,46.2,46.2,0,0,1,10.7-10.1,22.9,22.9,0,0,1,12.1-4m3.4,4a25.7,25.7,0,0,0-8.8,5.6,54.3,54.3,0,0,0-7.5,9,73.3,73.3,0,0,0-5.9,10.6,57.7,57.7,0,0,0-3.7,10.5,45.1,45.1,0,0,0,8-6,96.9,96.9,0,0,0,7.8-7.9,96.1,96.1,0,0,0,6.5-8.5,50.6,50.6,0,0,0,4.5-7.4c1-2.2,1.5-3.8,1.4-5s-.8-1.4-2.3-.9"/><path class="ebe0c31a-a19c-4c07-a952-4e8092fe2a7f" d="M339.2,323.3c0,4.4,1.8,5.4,12.3,5.5,24.6.1,31.2-19.6,34.5-19.6s5.7,1.7,5.7,3.1-4.7,21.7-5.3,24.2-2.6,5.1-6.1,5c-11.8-.4-26.2-.7-40.5-.7s-28.9.1-40.7.4c-1.5-.1-3.2-3.6-3.1-5.7s9.1-2.1,9.1-9.3l.3-84.4c0-7.3-9.1-6.7-9.1-9.4s1.7-5.8,3.3-5.6c6.7.4,14.8.6,23.1.6s16.3-.1,22.9-.4c1.4-.2,3.2,3.5,3.2,5.6s-9.3,2-9.3,9.3Z"/><path class="ebe0c31a-a19c-4c07-a952-4e8092fe2a7f" d="M417.6,326.3c-2.4,6.8,8.4,6.8,8.4,9.4s-1.9,5.9-3.3,5.7-7.5-.5-12.6-.5-10.1.1-12.7.4-3.2-3.7-3.1-5.7,7.6-2.6,9.9-9.4l31.7-88.5c-2.8-2.3-6.2-3.1-6.2-4.8s1.9-5.8,3.2-5.6c12,1,24.8.1,30.6.1s7.4,1,8.4,3.9l33.2,95.3c2.3,7,9.9,6.8,9.9,9.4s-1.7,5.8-3,5.8c-6.8-.4-15.5-.6-24.3-.6s-17.4.1-24.1.4c-1.4,0-3.2-3.8-3.2-5.8s10.8-2.3,8.4-9.3L463,310l-39.6.2ZM459,298.1l-15.5-44.6-15.7,44.3Z"/><path class="ebe0c31a-a19c-4c07-a952-4e8092fe2a7f" d="M630.7,336.8c.7,1.8-1.9,5.7-3.2,5.6-12-1.1-20.9-.1-26.3-.1s-7.3-1.4-9-4.1l-48.4-78.4-.3,67.1c0,7.3,10.1,6.9,10.1,9.4s-1.9,6-3.2,5.8a95.9,95.9,0,0,0-12.3-.6c-4.9,0-9.8.2-12.5.5s-3-3.8-3-5.8,8.2-2,8.3-9.3l.3-84.1c0-7.2-8.3-6.7-8.2-9.4s1.7-5.9,3-5.8c12.2,1.1,26.7.1,32.2.1s7.1,1.4,8.8,4.2L615.3,310l.2-70.3c.1-7.3-10.1-6.9-10.1-9.4s1.9-5.9,3.3-5.8a95.9,95.9,0,0,0,12.3.6,104.2,104.2,0,0,0,12.5-.5c1.3-.1,3,3.8,3,5.8s-8.3,2-8.3,9.3l-.3,74.1c0,10.9,1,17.9,2.8,23"/><path class="ebe0c31a-a19c-4c07-a952-4e8092fe2a7f" d="M745.1,309.1c1-1.1,6.1.4,6.1,1.8,0,5.6-14.6,33.6-49.4,33.4-32.5-.1-55.9-24.8-55.8-59s24.2-58.8,57.8-58.7c13.5,0,19.7,3.5,25.4,3.5,4.2,0,5.6-1.7,8.3-1.7s3.5,2.1,4.4,5.3,4.3,24.1,4.2,25.5-3.7,4.9-5.7,4.9-11.4-25.2-31.8-25.3c-15.8,0-25.3,15.2-25.4,40.7-.1,28.9,11.9,45.6,32.2,45.7,10.9,0,19.7-4.9,29.7-16.1"/><path class="ebe0c31a-a19c-4c07-a952-4e8092fe2a7f" d="M878.6,286.2c-.1,34.8-24.3,58.7-59.4,58.6s-59.1-24.2-59-59,24.5-58.9,59.4-58.8,59.1,24.4,59,59.2m-37.1-.1c.1-32-6.9-47.1-21.9-47.2s-22.2,15.6-22.3,47,6.7,46.9,21.9,47,22.2-15.4,22.3-46.8"/></g></svg>